<mxfile host="app.diagrams.net" agent="Mozilla/5.0 (Windows NT 10.0; Win64; x64) AppleWebKit/537.36 (KHTML, like Gecko) Chrome/130.0.0.0 Safari/537.36" version="24.8.3">
  <diagram name="Seite-1" id="hwFUH_UvXQ4Qan72_D-Q">
    <mxGraphModel dx="1293" dy="880" grid="1" gridSize="10" guides="1" tooltips="1" connect="1" arrows="1" fold="1" page="1" pageScale="1" pageWidth="827" pageHeight="1169" math="0" shadow="0">
      <root>
        <mxCell id="0" />
        <mxCell id="1" parent="0" />
        <mxCell id="4HyKJ_f1OqXh0LpXB_Tc-2" value="" style="shape=image;verticalLabelPosition=bottom;labelBackgroundColor=default;verticalAlign=top;aspect=fixed;imageAspect=0;image=data:image/svg+xml,PHN2ZyB4bWxucz0iaHR0cDovL3d3dy53My5vcmcvMjAwMC9zdmciIHhtbDpzcGFjZT0icHJlc2VydmUiIGlkPSJzdmc1IiB2ZXJzaW9uPSIxLjEiIHZpZXdCb3g9IjAgMCAyOTcgMjEwIiBoZWlnaHQ9IjIxMG1tIiB3aWR0aD0iMjk3bW0iPjxkZWZzIGlkPSJkZWZzMiIvPjxnIGlkPSJsYXllcjEiPjxwYXRoIHRyYW5zZm9ybT0ic2NhbGUoMC4yNjQ1ODMzMykiIGlkPSJwYXRoMzkzIiBkPSIiIHN0eWxlPSJvcGFjaXR5OjAuOTtmaWxsOiM3ZDdkN2Q7c3Ryb2tlLXdpZHRoOjEuOTIwOTQiLz48cGF0aCBpZD0icGF0aDY0NiIgZD0ibSAxMC45MDUxMTIsMTEwLjg1NzAyIGMgMCwtMC4wNDQ0IDAuMjA5NDU2LC0wLjg2MzM4IDAuNDY1NDM4LC0xLjgxOTk0IDEuMDAzNzc4LC0zLjc1MDc5IDEuMzA4ODY4LC01LjY0Nzc1IDEuMzE3OTg0LC04LjE5NTAxIDAuMDExMjMsLTMuMTMzMTg0IC0wLjIzMDc3NCwtMy45NDQ1MTYgLTIuMTY4MzMsLTcuMjY5NTgyIEMgOC41NjE2MjY2LDkwLjIxMTM0OCA3Ljk0NTY0NTcsODguODE0NzkxIDcuMzA1Njk0OSw4Ni4yODQ0OSAzLjkxMjUxNjQsNzIuODY4MDMzIDEwLjU0MDE1NCw2NC4zMDU2MjcgMjQuMjk4MTcxLDY0LjMzMTUxNyBjIDYuMTkxNjQ5LDAuMDExNjUgMTEuNDc3NzA3LDIuMTU4NTk5IDE1LjM4NTUyMyw2LjI0ODg2NiAyLjU2NzI2OCwyLjY4NzEyNiAzLjUwNTk2OCw0LjUzMzkwMSA0LjM0OTIsOC41NTY0OTEgMC40ODY4NzgsMi4zMjI2NzQgMC41MjU4NCwzLjM3NDM2NiAwLjE3ODM3Miw0LjgxNjE2IC0wLjA5MDE0LDAuMzc0MDc5IDAuMjU5NTA1LDEuMDc1NTI1IDEuNjg4NzU3LDMuMzg3ODQzIDEuMzk3MzY3LDIuMjYwNzMzIDEuODAyNDQxLDMuMDY3NjYzIDEuODAyNDQxLDMuNTkwNTY5IDAsMC44ODc1NTggLTAuMzYwOTE2LDEuMzY2NTA0IC0xLjM1NDQwOSwxLjc5NzMzNiAtMS4yODM5MTMsMC41NTY3NyAtMS4zMTY3MzIsMC42MDE1MDkgLTAuOTk5MTEsMS4zNjE2OTEgMC4zOTYzMTcsMC45NDg1MTggMC4zNDQzMDUsMS42NTI1MzEgLTAuMTY1ODk0LDIuMjQ1NjggLTAuNDA1MzU2LDAuNDcxMjUzIC0wLjU5NjgwMiwwLjUyNjg3OSAtMi4yMTcyNzksMC42NDQyOTkgLTIuNTg5OTA4LDAuMTg3NjYzIC0zLjE4ODg4OCwwLjUzMjk5OSAtMy4xODg4ODgsMS44Mzg1NjcgMCwwLjY5ODg5NCAwLjM5MjM4MiwxLjAyMTEwOCAxLjc0MDQ0MSwxLjQyOTE3MSAxLjY3NTI2MywwLjUwNzExIDIuMDQ5Nzk2LDEuMzI2NjIgMS4xNzk5MjcsMi41ODE4MyAtMC40NDI3NTIsMC42Mzg5IC0wLjQ2MTg1NCwwLjc1NDcgLTAuMjcxMTI3LDEuNjQ0MDIgMC4yNzg4MzYsMS4zMDAxOCAtMC4wMjQxNCwyLjM3MzM4IC0wLjkyNDE0MywzLjI3MzM3IC0xLjA0MDY1NCwxLjA0MDY2IC0yLjE2ODMwOCwxLjIxOTQgLTUuNDQ5NTUzLDAuODYzOCAtMi45NDg5NiwtMC4zMTk1OSAtMi43MzQ1NzYsLTAuMzk5OTEgLTMuNTY1NzEzLDEuMzM1ODUgbCAtMC40NzQzODUsMC45OTA2OSBIIDIxLjQ1ODcyMiBjIC01LjgwNDQ4NiwwIC0xMC41NTM2MSwtMC4wMzY0IC0xMC41NTM2MSwtMC4wODA3IHogTSA1NS41NjUxNSwxMDguOTI0OSBjIC0wLjI2NjU4NywtMC4yNjY1OCAtMC4xMDMxNDYsLTAuODc3IDAuNDUwMTMzLC0xLjY4MTE3IDIuMTE1MTU3LC0zLjA3NDI3IDIuODkxMjE3LC02Ljg5NDYgMi4xNTQ5NjYsLTEwLjYwODI4NSAtMC4zMzc4MDIsLTEuNzAzOTE3IC0xLjYzNTg3MywtNC40ODY2NCAtMi42MzYzMTIsLTUuNjUxNTc0IC0wLjgwNjk5MSwtMC45Mzk2NyAtMC44NDUzMDMsLTEuNjI2ODk2IC0wLjA5NDU5LC0xLjY5NjUxMyAwLjU5MjI4NiwtMC4wNTQ5NCAxLjU2ODg2MiwxLjExOTU3NyAyLjYyNTI5NCwzLjE1NzM2OSAxLjE2MDAwNiwyLjIzNzU5NiAxLjU1MjM3MiwzLjczMjQwOSAxLjY2NTE2OSw2LjM0MzczNiAwLjEyMjU2MiwyLjgzNzg1NyAtMC4yMTAzMDQsNC41NDQxMDcgLTEuMzU3Nzk0LDYuOTU5OTI3IC0xLjI1OTYyMiwyLjY1MTg4IC0yLjIzMTU2LDMuNzUxODMgLTIuODA2ODY4LDMuMTc2NTEgeiBtIC0zLjAxNDk0OCwtMi45MjI0OSBjIC0wLjQ1MTg2NywtMC4yNTI4OCAtMC4zOTk1NjQsLTAuNTg1NDMgMC4yNTQwNDksLTEuNjE1NTggMS4yNTg1MTQsLTEuOTgzNDkgMS42OTc2MTMsLTUuMjgyODA5IDEuMDEzNDY3LC03LjYxNDgzMyAtMC4zMjQxNCwtMS4xMDQ4ODQgLTEuMjI1MSwtMi44MTY5MzEgLTEuNjgxOTA0LC0zLjE5NjA0IC0wLjU4ODg1NSwtMC40ODg3MTIgLTAuMTA4ODQ2LC0xLjQ3MjcwNyAwLjYwNTQzNywtMS4yNDExIDAuNTAwMTg5LDAuMTYyMTg4IDEuNzE3NDAzLDIuMTYyMDY1IDIuMjc0MDI5LDMuNzM2MjA2IDAuOTc5NTc4LDIuNzcwMjc1IDAuNTc5MTIsNi4zNjMwMjcgLTAuOTg3MTI5LDguODU2MTA3IC0wLjcyNzI3MiwxLjE1NzYzIC0wLjk4OTY0OSwxLjM0ODUxIC0xLjQ3Nzk0OSwxLjA3NTI0IHogbSAtMy4zMTY3NiwtMy4xNTkxMSBjIC0wLjI3NTg2NCwtMC4xNzc1IC0wLjI1OTc5NSwtMC4zMDczMSAwLjI1OTU1LC0yLjA5NTU4IDAuMzUxOTMsLTEuMjExNzk4IDAuMjUyMTc2LC0yLjM1NDQ5NyAtMC4zMDg0OTksLTMuNTMzNzgxIC0wLjQzMjQyLC0wLjkwOTU0MiAtMC40MDI5MzQsLTEuNDMzMzE4IDAuMDg2MDEsLTEuNTI3NDc5IDAuOTI0OTE1LC0wLjE3ODExOSAxLjcwMDM2NCwxLjUxMDM2MyAxLjcyMDA4NiwzLjc0NTM2MSAwLjAxMjE1LDEuMzcyNzE5IC0wLjA1NjcsMS43NDY3ODkgLTAuNDY4NTE3LDIuNTQ3MDM5IC0wLjQ4OTIzMiwwLjk1MDY2IC0wLjgxNDk5OSwxLjE2OTE5IC0xLjI4ODYzNSwwLjg2NDQ0IHoiIHN0eWxlPSJmaWxsOiMxYjU3OGE7ZmlsbC1vcGFjaXR5OjE7c3Ryb2tlLXdpZHRoOjAuMTg4NzA0Ii8+PHBhdGggaWQ9InBhdGg2NjAiIGQ9Im0gODEuMzYyMjEzLDY1Ljc0NDkwNiBjIC0wLjY5Mjc4OSwtMC4yNTY0ODQgLTAuOTI0OTA4LC0xLjE0NDUyMSAtMC40NjQxNjksLTEuNzc1ODg1IDAuMjI2NDE4LC0wLjMxMDI3OSAwLjU0ODU3MiwtMC4zNTg2NzYgMi45MTk2MzQsLTAuNDM4NTk2IGwgMi42NjUxMzQsLTAuMDg5ODMgViA2MS45MTc4MSBjIDAsLTEuNTIyNzc1IDAsLTEuNTIyNzc1IC0xLjQ2NDI1NiwtMS44OTU0MjEgLTUuMzgxNjU1LC0xLjM2OTU5OCAtOC44NjY3NzIsLTUuNzkyODgxIC04Ljg2Njc3MiwtMTEuMjUzNjQ0IDAsLTEuMzQ4NzMgMC4wNTQxNywtMS42NDI0ODcgMC4zNTkzMzQsLTEuOTQ3NjI3IDAuODc0NzM3LC0wLjg3NDczNCAxLjc5NjAyNCwtMC4xNjEyNzggMS43OTgwNjQsMS4zOTI0NDEgMC4wMTY4MSwxMi43NzU5MDQgMTcuNzIzNzM3LDEzLjIwNzE2IDE4LjYyMDIyNywwLjQ1MzQ5NiAwLjE1NjA0NSwtMi4yMTk4MTEgMS42OTc4MjcsLTMuMTgzODI5IDIuMTU4MjI5LC0xLjM0OTQ1IDEuMjQ5MTgyLDQuOTc3MTQ0IC0zLjU5MjgzMSwxMS43NDI3NzcgLTkuMTU1MTg4LDEyLjc5MjMxNiAtMS4yMDM3NjYsMC4yMjcxMzUgLTEuMjAzNzY2LDAuMjI3MTM1IC0xLjIwMzc2NiwxLjgyMzgyIHYgMS41OTY2ODQgaCAyLjYwNTIxMyBjIDMuMTc5NjIsMCA0LjI3MDAxNywwLjcwNDU5NCAyLjk0NTkxOSwxLjkwMzYwNCAtMC4zNzM5NTEsMC4zMzg2MyAtMTIuMDgxNTY5LDAuNjIwMzgyIC0xMi45MTc2MDMsMC4zMTA4NzcgeiBtIDMuOTMzNDE0LC0xMC41MzIyODUgYyAtMS44Mjk5MSwtMC43NzIxMDcgLTIuOTI3OTc4LC0xLjgxMDQwMSAtMy43MzU1NzMsLTMuNTMyMjE3IC0wLjczNDIzMywtMS41NjU0IC0wLjczMDc5NSwtMTMuMjAxMDQxIDAuMDAzOCwtMTQuNzQxMTMyIDIuNzgwOTk1LC01LjgyNTk4NiAxMS4zMjkwNSwtNC43ODU5NCAxMi41NTE4ODksMS41MjcxODkgMC41NDg2MSwyLjgzMjMxIDAuMTUwOTQsMTEuOTM5MzMyIC0wLjU4NjQ2NCwxMy40MzA2MjcgLTEuNTM1OTgzLDMuMTA2MzEzIC01LjIxNzE1MSw0LjU4ODU0OCAtOC4yMzQyMDgsMy4zMTU1MzMgeiIgc3R5bGU9ImZpbGw6IzFiNTc4YTtmaWxsLW9wYWNpdHk6MTtzdHJva2Utd2lkdGg6MC4xNzk2NjkiLz48cGF0aCBpZD0icGF0aDY3NCIgZD0ibSA4OC4yNTYxNCwxMjQuNzgzNjMgYyAwLC04LjE2OSAwLjA2ODU0LC0xNC44MjU3NyAwLjE1MjI0LC0xNC43OTI4MyAwLjA4Mzc0LDAuMDMyOSAyLjMwNTM0OSwxLjYzNjQ5IDQuOTM2OTA5LDMuNTYzNDUgbCA0Ljc4NDY1NCwzLjUwMzU2IC0wLjAwMzEsNy43MjU4MiAtMC4wMDMxLDcuNzI1ODEgLTQuNzg1MjA0LDMuNTAzNTYgYyAtMi42MzE4NzMsMS45MjY5NiAtNC44NTE5MjYsMy41MzA1MiAtNC45MzM0NTUsMy41NjM0NSAtMC4wODE1NCwwLjAzMjkgLTAuMTQ4MjQ0LC02LjYyMzgyIC0wLjE0ODI0NCwtMTQuNzkyODIgeiBNIDc1LjQ3MTczMiwxMzcuMzE1NiBjIC02LjEzMDc5NiwtNi43ODY1NCAtNi40NDgzNDEsLTE3LjAyMTkgLTAuNzQ4MzI0LC0yNC4xMjA2OSAxLjAyMzMwMSwtMS4yNzQ0MSAxLjMyMTgyMSwtMS41MzY0MyAxLjgwMzU2NCwtMS41ODMwMyAwLjc1MDgxNCwtMC4wNzI2IDEuMDE1MDE2LDAuNjUxMzIgMC40NzgyNzQsMS4zMTA1NiAtMC4xODU4MDYsMC4yMjgyIC0wLjcyNTg2NiwwLjg4ODE4IC0xLjIwMDEzNywxLjQ2NjYzIC01LjA4OTAzNCw2LjIwNjg3IC00Ljc5MjM0OCwxNS40NTkzOCAwLjY5Mzc3NSwyMS42MzY0NyAwLjgxNDYwOSwwLjkxNzIgMC45NjM5NjgsMS4zNjYwMyAwLjU4MTc3MiwxLjc0ODIzIC0wLjM5NzMxOCwwLjM5NzMxIC0wLjk4ODA5MSwwLjIyOTA4IC0xLjYwODkyNCwtMC40NTgxNyB6IG0gNC4zODY5MzQsLTQuNjA5MjUgYyAtMy45Mjc0MTksLTQuMjk3MjIgLTMuOTA4ODA1LC0xMS42Mzk1IDAuMDQwMjcsLTE1Ljg4MjE3IDEuNTMwNDU5LC0xLjY0NDI1IDIuNjY3NTg4LC0wLjcwNTkyIDEuMTg1MjgzLDAuOTc4MDggLTMuNTY5NzczLDQuMDU1NDYgLTMuNDEzOTgzLDEwLjk3NTY1IDAuMzIyNjI3LDE0LjMzMDc2IDAuNDUyMDIsMC40MDU4OCAwLjQ4ODU0NCwwLjg3MjIzIDAuMDk4ODQsMS4yNjE5NCAtMC40NDk3NzMsMC40NDk3NyAtMC43MDM1NzcsMC4zNDM2NiAtMS42NDcwMDYsLTAuNjg4NjEgeiBtIDIwLjI1NTY4NCwtNy45MjI3MiB2IC03LjYzNTk4IGggMi4zMzU3MSAyLjMzNTcxIHYgNy42MzU5OCA3LjYzNTk3IGggLTIuMzM1NzEgLTIuMzM1NzEgeiIgc3R5bGU9ImZpbGw6IzFiNTc4YTtmaWxsLW9wYWNpdHk6MTtzdHJva2Utd2lkdGg6MC4xNzk2NjkiLz48L2c+PC9zdmc+;movable=0;resizable=0;rotatable=0;deletable=0;editable=0;locked=1;connectable=0;" vertex="1" parent="1">
          <mxGeometry x="117" y="90" width="297" height="210" as="geometry" />
        </mxCell>
      </root>
    </mxGraphModel>
  </diagram>
</mxfile>
